<?xml version="1.0" encoding="utf-8"?>
<!-- Generator: Adobe Illustrator 19.0.0, SVG Export Plug-In . SVG Version: 6.00 Build 0)  -->
<svg version="1.1" id="Layer_1" xmlns="http://www.w3.org/2000/svg" xmlns:xlink="http://www.w3.org/1999/xlink" x="0px" y="0px"
	 viewBox="0 0 88 41.6" style="enable-background:new 0 0 88 41.6;" xml:space="preserve">
<style type="text/css">
	.st0{fill:#4F4F4F;}
	.st1{fill-rule:evenodd;clip-rule:evenodd;fill:#18AFD7;}
	.st2{fill-rule:evenodd;clip-rule:evenodd;fill:#183761;}
	.st3{fill-rule:evenodd;clip-rule:evenodd;fill:#0D79A9;}
</style>
<g id="XMLID_1_">
	<path id="XMLID_2_" class="st0" d="M10.2,31.1c0,1.9-0.6,3.4-1.7,4.5s-2.7,1.5-4.8,1.5H0.4V25.3h3.7c1.9,0,3.4,0.5,4.5,1.5
		S10.2,29.3,10.2,31.1z M7.6,31.2c0-2.5-1.1-3.8-3.4-3.8H2.9V35H4C6.4,35,7.6,33.7,7.6,31.2z"/>
	<path id="XMLID_5_" class="st0" d="M14.3,37.1h-2.5V25.3h6.8v2h-4.3v3h4v2h-4V37.1z"/>
	<path id="XMLID_7_" class="st0" d="M30.5,33.8c0,1.1-0.4,1.9-1.1,2.5c-0.8,0.6-1.8,0.9-3.2,0.9c-1.3,0-2.4-0.2-3.3-0.7v-2.3
		c0.8,0.4,1.5,0.6,2,0.8c0.6,0.1,1.1,0.2,1.5,0.2c0.5,0,1-0.1,1.3-0.3c0.3-0.2,0.4-0.5,0.4-0.9c0-0.2-0.1-0.4-0.2-0.6
		c-0.1-0.2-0.3-0.4-0.6-0.5c-0.3-0.2-0.8-0.4-1.5-0.8c-0.7-0.3-1.3-0.7-1.6-1c-0.4-0.3-0.6-0.7-0.9-1.1C23.1,29.5,23,29,23,28.5
		c0-1,0.4-1.9,1.1-2.5c0.7-0.6,1.7-0.9,2.9-0.9c0.6,0,1.2,0.1,1.8,0.2c0.6,0.1,1.1,0.3,1.7,0.6l-0.8,1.9c-0.6-0.3-1.1-0.4-1.6-0.5
		c-0.4-0.1-0.8-0.2-1.2-0.2c-0.5,0-0.8,0.1-1.1,0.3c-0.3,0.2-0.4,0.5-0.4,0.9c0,0.2,0.1,0.4,0.2,0.6c0.1,0.2,0.3,0.3,0.5,0.5
		c0.2,0.2,0.8,0.4,1.6,0.8c1.1,0.5,1.9,1.1,2.3,1.6C30.3,32.4,30.5,33.1,30.5,33.8z"/>
	<path id="XMLID_9_" class="st0" d="M39.8,32.6c0,1.5-0.4,2.6-1.2,3.4c-0.8,0.8-1.9,1.2-3.2,1.2c-0.9,0-1.6-0.2-2.3-0.6
		c-0.7-0.4-1.2-0.9-1.5-1.6c-0.4-0.7-0.5-1.5-0.5-2.5c0-1.5,0.4-2.6,1.2-3.4c0.8-0.8,1.9-1.2,3.2-1.2c0.9,0,1.6,0.2,2.3,0.6
		s1.2,0.9,1.5,1.6C39.6,30.8,39.8,31.6,39.8,32.6z M33.6,32.6c0,0.9,0.1,1.6,0.4,2c0.3,0.5,0.8,0.7,1.4,0.7c0.7,0,1.1-0.2,1.4-0.7
		c0.3-0.5,0.4-1.1,0.4-2c0-0.9-0.1-1.6-0.4-2c-0.3-0.4-0.8-0.7-1.4-0.7c-0.7,0-1.1,0.2-1.4,0.7C33.7,31,33.6,31.7,33.6,32.6z"/>
	<path id="XMLID_12_" class="st0" d="M43.5,37.1H41V24.5h2.5V37.1z"/>
	<path id="XMLID_14_" class="st0" d="M51.6,37.1l-0.3-1.2h-0.1c-0.3,0.4-0.6,0.7-1.1,1c-0.5,0.2-1,0.3-1.7,0.3
		c-1.1,0-1.9-0.3-2.4-0.9c-0.5-0.6-0.8-1.4-0.8-2.4v-5.9h2.5v5.3c0,0.7,0.1,1.1,0.3,1.5c0.2,0.3,0.6,0.5,1.1,0.5
		c0.7,0,1.2-0.2,1.5-0.7c0.3-0.5,0.5-1.2,0.5-2.3v-4.2h2.5v9H51.6z"/>
	<path id="XMLID_16_" class="st0" d="M58.9,37.3c-2.8,0-4.2-1.5-4.2-4.6c0-1.5,0.4-2.7,1.1-3.5c0.8-0.8,1.9-1.2,3.3-1.2
		c1,0,2,0.2,2.8,0.6l-0.7,1.9c-0.4-0.2-0.7-0.3-1.1-0.4c-0.3-0.1-0.7-0.1-1-0.1c-1.3,0-1.9,0.9-1.9,2.7c0,1.8,0.6,2.6,1.9,2.6
		c0.5,0,0.9-0.1,1.3-0.2c0.4-0.1,0.8-0.3,1.2-0.6v2.1c-0.4,0.3-0.8,0.4-1.2,0.5C60.1,37.2,59.6,37.3,58.9,37.3z M60.5,39.1
		c0,0.7-0.2,1.2-0.6,1.5c-0.4,0.3-1,0.5-1.9,0.5c-0.4,0-0.8-0.1-1.2-0.2v-1.4c0.1,0,0.3,0.1,0.6,0.1c0.2,0,0.4,0.1,0.6,0.1
		c0.4,0,0.6-0.2,0.6-0.5c0-0.4-0.4-0.7-1.3-0.9l0.6-1.2h1.6l-0.2,0.5c0.4,0.1,0.7,0.3,1,0.6C60.4,38.5,60.5,38.8,60.5,39.1z"/>
	<path id="XMLID_19_" class="st0" d="M71.1,32.6c0,1.5-0.4,2.6-1.2,3.4c-0.8,0.8-1.9,1.2-3.2,1.2c-0.9,0-1.6-0.2-2.3-0.6
		c-0.7-0.4-1.2-0.9-1.5-1.6c-0.4-0.7-0.5-1.5-0.5-2.5c0-1.5,0.4-2.6,1.2-3.4c0.8-0.8,1.9-1.2,3.2-1.2c0.9,0,1.6,0.2,2.3,0.6
		s1.2,0.9,1.5,1.6C71,30.8,71.1,31.6,71.1,32.6z M65.4,26.2c-0.2,0-0.3,0.1-0.5,0.2c-0.2,0.1-0.3,0.4-0.3,0.6h-1.2
		c0.1-0.8,0.3-1.4,0.7-1.8c0.4-0.4,0.9-0.7,1.5-0.7c0.2,0,0.4,0,0.6,0.1c0.2,0.1,0.4,0.2,0.6,0.3c0.2,0.1,0.4,0.2,0.6,0.3
		c0.2,0.1,0.4,0.1,0.6,0.1c0.2,0,0.3-0.1,0.5-0.2c0.2-0.1,0.3-0.4,0.3-0.6h1.2c-0.1,0.8-0.3,1.4-0.7,1.8c-0.4,0.4-0.9,0.7-1.5,0.7
		c-0.2,0-0.4,0-0.6-0.1c-0.2-0.1-0.4-0.2-0.6-0.3c-0.2-0.1-0.4-0.2-0.6-0.3C65.8,26.3,65.6,26.2,65.4,26.2z M64.9,32.6
		c0,0.9,0.1,1.6,0.4,2c0.3,0.5,0.8,0.7,1.4,0.7c0.7,0,1.1-0.2,1.4-0.7c0.3-0.5,0.4-1.1,0.4-2c0-0.9-0.1-1.6-0.4-2
		c-0.3-0.4-0.8-0.7-1.4-0.7c-0.7,0-1.1,0.2-1.4,0.7C65.1,31,64.9,31.7,64.9,32.6z"/>
	<path id="XMLID_23_" class="st0" d="M76.4,37.3c-1.5,0-2.6-0.4-3.4-1.2c-0.8-0.8-1.2-1.9-1.2-3.4c0-1.5,0.4-2.7,1.1-3.5
		c0.8-0.8,1.8-1.2,3.1-1.2c1.3,0,2.3,0.4,3,1.1c0.7,0.7,1.1,1.7,1.1,3v1.2h-5.8c0,0.7,0.2,1.2,0.6,1.6c0.4,0.4,0.9,0.6,1.6,0.6
		c0.5,0,1.1-0.1,1.5-0.2c0.5-0.1,1-0.3,1.5-0.5v1.9c-0.4,0.2-0.9,0.4-1.4,0.5C77.7,37.2,77.1,37.3,76.4,37.3z M76.1,29.7
		c-0.5,0-0.9,0.2-1.2,0.5c-0.3,0.3-0.5,0.8-0.5,1.4h3.5c0-0.6-0.2-1.1-0.5-1.4C77,29.8,76.6,29.7,76.1,29.7z"/>
	<path id="XMLID_26_" class="st0" d="M87.6,34.4c0,0.9-0.3,1.6-1,2.1s-1.6,0.7-2.9,0.7c-0.7,0-1.2,0-1.7-0.1
		c-0.5-0.1-0.9-0.2-1.3-0.4v-2c0.5,0.2,1,0.4,1.5,0.5c0.6,0.1,1.1,0.2,1.5,0.2c0.9,0,1.3-0.3,1.3-0.8c0-0.2-0.1-0.4-0.2-0.5
		c-0.1-0.1-0.3-0.3-0.6-0.4c-0.3-0.2-0.7-0.3-1.2-0.5c-0.7-0.3-1.2-0.6-1.5-0.8c-0.3-0.2-0.6-0.5-0.7-0.9c-0.1-0.3-0.2-0.7-0.2-1.2
		c0-0.8,0.3-1.4,0.9-1.9c0.6-0.4,1.5-0.7,2.6-0.7c1.1,0,2.1,0.2,3.2,0.7l-0.7,1.8c-0.5-0.2-0.9-0.4-1.3-0.5
		c-0.4-0.1-0.8-0.2-1.2-0.2c-0.7,0-1.1,0.2-1.1,0.6c0,0.2,0.1,0.4,0.4,0.6c0.2,0.2,0.7,0.4,1.5,0.7c0.7,0.3,1.2,0.6,1.5,0.8
		c0.3,0.2,0.6,0.5,0.7,0.9C87.5,33.6,87.6,34,87.6,34.4z"/>
</g>
<g id="XMLID_309_">
	<path id="XMLID_321_" class="st1" d="M70,10h6.3v6.3c0,1.1-0.9,2.1-2.1,2.1h-6.3v-6.3C67.9,10.9,68.8,10,70,10L70,10z"/>
	<path id="XMLID_320_" class="st2" d="M60.2,1.9h6.3v6.3c0,1.1-0.9,2.1-2.1,2.1h-6.3V4C58.1,2.9,59.1,1.9,60.2,1.9L60.2,1.9z"/>
	<path id="XMLID_319_" class="st1" d="M56.5,7.2h4.3v4.3c0,0.8-0.6,1.4-1.4,1.4h-4.3V8.7C55.1,7.9,55.7,7.2,56.5,7.2L56.5,7.2z"/>
	<path id="XMLID_318_" class="st1" d="M28.3,7.2h4.3v4.3c0,0.8-0.6,1.4-1.4,1.4h-4.3V8.6C26.9,7.8,27.6,7.2,28.3,7.2L28.3,7.2z"/>
	<path id="XMLID_317_" class="st2" d="M17.4,7.4h4.3v4.3c0,0.8-0.6,1.4-1.4,1.4H16V8.9C16,8.1,16.6,7.4,17.4,7.4L17.4,7.4z"/>
	<path id="XMLID_315_" class="st2" d="M48.4,5.9h4.3v4.3c0,0.8-0.6,1.4-1.4,1.4h-4.3V7.3C46.9,6.6,47.6,5.9,48.4,5.9L48.4,5.9z"/>
	<path id="XMLID_314_" class="st3" d="M35.5,0.4h6.3v6.3c0,1.1-0.9,2.1-2.1,2.1h-6.3V2.5C33.4,1.4,34.3,0.4,35.5,0.4L35.5,0.4z"/>
	<path id="XMLID_313_" class="st1" d="M11.7,12.8H16V17c0,0.8-0.6,1.4-1.4,1.4h-4.3v-4.3C10.3,13.4,10.9,12.8,11.7,12.8L11.7,12.8z"
		/>
	<path id="XMLID_312_" class="st3" d="M23.8,11.8h6.3v6.3c0,1.1-0.9,2.1-2.1,2.1h-6.3v-6.3C21.7,12.8,22.6,11.8,23.8,11.8L23.8,11.8
		z"/>
	<path id="XMLID_311_" class="st3" d="M40.7,13.1H45v4.3c0,0.8-0.6,1.4-1.4,1.4h-4.3v-4.3C39.3,13.8,40,13.1,40.7,13.1L40.7,13.1z"
		/>
	<path id="XMLID_310_" class="st3" d="M53,15.6h4.3v4.3c0,0.8-0.6,1.4-1.4,1.4h-4.3V17C51.6,16.2,52.3,15.6,53,15.6L53,15.6z"/>
</g>
</svg>
